Coordinates
version=1
nRows=13
nColumns=36
inDegrees=yes

Units are S.I. units (second, meters, Newtons, ...)
If the header above contains a line with 'inDegrees', this indicates whether rotational values are in degrees (yes) or radians (no).

endheader
time	pelvis_tilt	pelvis_list	pelvis_rotation	pelvis_tx	pelvis_ty	pelvis_tz	hip_flexion_r	hip_adduction_r	hip_rotation_r	knee_angle_r	knee_angle_r_beta	ankle_angle_r	subtalar_angle_r	mtp_angle_r	hip_flexion_l	hip_adduction_l	hip_rotation_l	knee_angle_l	knee_angle_l_beta	ankle_angle_l	subtalar_angle_l	mtp_angle_l	lumbar_extension	lumbar_bending	lumbar_rotation	arm_flex_r	arm_add_r	arm_rot_r	elbow_flex_r	pro_sup_r	arm_flex_l	arm_add_l	arm_rot_l	elbow_flex_l	pro_sup_l
      0.00000000	      2.28948268	      1.51210596	      3.36935440	     -0.14570778	      0.91648533	     -0.26577769	     23.45059493	     -1.36802631	     -4.52135199	      3.10800173	      0.05424486	     -0.49304965	     -6.66811306	     -5.66068733	    -23.55315341	      2.01211854	      0.71687388	     11.67595198	      0.20378381	     12.58156477	      0.16592158	     -5.66068733	     -7.34106413	     -1.12137155	     -9.97671693	    -14.17146931	     -2.91473962	    -18.10454442	     27.27262628	    112.74368832	     17.89655571	     -8.62872410	      3.57067362	     54.96838120	    108.84890848
      0.01000000	      2.25738879	      1.01975205	      3.27709809	     -0.12955563	      0.91610778	     -0.26382664	     23.47906996	     -0.62987909	     -4.66269774	      4.35863375	      0.07607251	     -2.19464704	     -6.82830220	     -5.67988059	    -23.49268256	      1.25598862	      0.26646620	     13.33128266	      0.23267478	     11.00315244	     -0.02497723	     -5.67988059	     -6.98922704	     -0.50374914	     -9.73322206	    -14.32822488	     -3.06542663	    -18.19797048	     27.03950590	    112.68789162	     17.17196557	     -8.39972658	      3.53196240	     54.75628195	    108.86813096
      0.02000000	      2.01947606	      0.53691193	      3.11849718	     -0.11349127	      0.91552519	     -0.26168107	     23.65171948	      0.19998510	     -3.74075307	      5.45245659	      0.09516332	     -5.27312507	     -9.38770251	     -5.76233689	    -23.13143589	      0.56535430	     -0.01244395	     15.10305242	      0.26359799	      9.30491437	     -0.57167583	     -5.76233689	     -6.39467654	      0.06274518	     -9.57369269	    -14.36457347	     -3.19000520	    -18.38961915	     26.62219746	    112.55267763	     16.29147824	     -8.12075118	      3.06814080	     54.50305646	    108.95890867
      0.03000000	      2.05858153	     -0.06318995	      2.93226911	     -0.09731405	      0.91553958	     -0.25955100	     23.64553819	      1.08509028	     -3.66013873	      6.93950217	      0.12111716	     -6.52419365	     -9.81077005	     -5.78282491	    -22.90271582	     -0.30179641	     -0.66118059	     17.09945090	      0.29844172	      7.33878042	     -0.73639920	     -5.78282491	     -6.14235367	      0.79647367	     -9.24537856	    -14.46880443	     -3.37310640	    -18.44768132	     26.47649873	    112.52279907	     15.48059724	     -7.83708113	      2.98416131	     54.27158550	    108.96241384
      0.04000000	      1.89630585	     -0.61739008	      2.65234945	     -0.08129501	      0.91557140	     -0.25727194	     23.81900229	      2.02227230	     -2.61874718	      8.43846499	      0.14727900	     -8.66982292	    -12.38952210	     -5.86883625	    -22.21534474	     -1.04157909	     -1.06509122	     19.44667550	      0.33940852	      4.98381108	     -1.63213412	     -5.86883625	     -5.67831459	      1.46729092	     -8.93728025	    -14.44700379	     -3.54890776	    -18.57716729	     26.21269290	    112.45432235	     14.47287377	     -7.45808756	      2.40700869	     53.98187863	    109.00633463
      0.05000000	      1.97533755	     -1.30736438	      2.34498081	     -0.06526346	      0.91623368	     -0.25494498	     23.78909722	      3.05178711	     -2.20519328	     10.23660615	      0.17866248	     -8.98126850	    -13.17366707	     -5.89087334	    -21.48948869	     -2.02147640	     -1.87560332	     22.23413412	      0.38805885	      2.45588845	     -1.97310860	     -5.89087334	     -5.52581908	      2.30475632	     -8.45863844	    -14.44481962	     -3.76391287	    -18.63311801	     26.11475556	    112.43654786	     13.56328126	     -7.09647493	      2.16055748	     53.57462252	    108.97460972
      0.06000000	      1.87350334	     -1.88523665	      1.95090821	     -0.04960329	      0.91695131	     -0.25253932	     23.95283943	      4.03153821	     -1.29286168	     12.12303968	      0.21158696	     -9.45493705	    -14.88022724	     -5.93893769	    -20.24860298	     -2.79552314	     -2.31261259	     25.44837614	      0.44415795	     -0.66937798	     -3.25667731	     -5.93893769	     -5.22545610	      2.99761492	     -7.95858871	    -14.34222086	     -3.93803821	    -18.75581987	     26.04550295	    112.41690479	     12.56447878	     -6.61793188	      1.53344805	     53.02520975	    108.94855305
      0.07000000	      1.95558775	     -2.56428664	      1.56270161	     -0.03411075	      0.91821749	     -0.25014611	     23.77741383	      5.13571989	     -0.50282831	     13.84230019	      0.24159371	     -9.53767204	    -16.51203897	     -6.00618781	    -18.92948043	     -3.73374281	     -2.79745229	     28.99024951	      0.50597530	     -4.31487161	     -4.76255005	     -6.00618781	     -5.17695137	      3.80754543	     -7.41931086	    -14.17298220	     -4.14285057	    -18.88369540	     26.04636914	    112.42363265	     11.58644118	     -6.13118208	      0.93762360	     52.44927022	    108.99999252
      0.08000000	      2.06634805	     -3.34005529	      1.13424546	     -0.01897160	      0.91968202	     -0.24766440	     23.43895558	      6.35271698	      0.14527386	     15.34710525	      0.26785752	     -8.93739995	    -17.41181429	     -6.03326560	    -17.34073477	     -4.86058363	     -3.39329489	     32.92375423	      0.57462791	     -7.74522796	     -5.45103667	     -6.03326560	     -5.23675240	      4.72737836	     -6.76679578	    -13.94774183	     -4.37023518	    -18.93787176	     26.16590597	    112.43909233	     10.69753889	     -5.65271439	      0.48834407	     51.71472997	    108.97522969
      0.09000000	      2.17750731	     -4.09004636	      0.74754540	     -0.00424543	      0.92131070	     -0.24528246	     22.93201556	      7.53096947	      0.70518353	     16.53833503	      0.28864840	     -8.20056320	    -18.26613603	     -6.05320440	    -15.52240469	     -5.97287900	     -3.71976078	     37.03267901	      0.64634218	    -11.30306307	     -6.30221704	     -6.05320440	     -5.34258299	      5.60038080	     -6.09353565	    -13.68966438	     -4.59304584	    -18.99509750	     26.35940332	    112.45946321	      9.87021380	     -5.15074858	     -0.00811758	     50.87414442	    108.93829280
      0.10000000	      2.20809242	     -4.71835537	      0.40072544	      0.00996688	      0.92295849	     -0.24304493	     22.35420422	      8.56086084	      1.24783666	     17.40964708	      0.30385566	     -7.51847688	    -19.00473851	     -6.07496990	    -13.41011972	     -6.91442805	     -3.71515343	     41.18880931	      0.71888034	    -14.88013537	     -7.61510565	     -6.07496990	     -5.40720519	      6.32256655	     -5.43919966	    -13.40583601	     -4.76450470	    -19.05534527	     26.69205824	    112.49369968	      9.10250859	     -4.62011782	     -0.60239547	     49.82164816	    108.91015254
      0.11000000	      2.21770452	     -5.12150511	      0.06880442	      0.02367858	      0.92472707	     -0.24122287	     21.69194505	      9.29469018	      1.66787584	     18.04334651	      0.31491580	     -6.97825965	    -19.65718774	     -6.12384638	    -11.17619199	     -7.42550537	     -3.33251688	     45.15964545	      0.78818450	    -18.57166545	    -10.04441128	     -6.12384638	     -5.51745392	      6.80752012	     -4.74963350	    -13.10112658	     -4.94605183	    -19.23983699	     27.23237170	    112.56022843	      8.47420669	     -4.05886876	     -1.26989618	     48.50967439	    109.05213897
      0.12000000	      2.33490105	     -5.61293428	     -0.14375837	      0.03715466	      0.92676046	     -0.23941964	     20.65615327	     10.09419767	      2.03217240	     18.18810972	      0.31744240	     -6.13478985	    -19.99816868	     -6.14405077	     -8.97035705	     -8.15202227	     -2.96045679	     49.02066280	      0.85557197	    -20.39809908	    -10.71443248	     -6.14405077	     -5.75027380	      7.36030104	     -4.19029185	    -12.68953911	     -5.12774922	    -19.21994854	     27.64594080	    112.60763714	      7.78052091	     -3.64806677	     -1.62009601	     47.33296667	    109.04858785
